<mxfile host="app.diagrams.net" modified="2022-09-12T11:29:08.292Z" agent="5.0 (Windows NT 10.0; Win64; x64) AppleWebKit/537.36 (KHTML, like Gecko) Chrome/105.0.0.0 Safari/537.36" etag="ekBwIoiHZmIUgC7YDRie" version="20.3.0" type="github">
  <diagram id="C5RBs43oDa-KdzZeNtuy" name="Page-1">
    <mxGraphModel dx="868" dy="482" grid="1" gridSize="10" guides="1" tooltips="1" connect="1" arrows="1" fold="1" page="1" pageScale="1" pageWidth="827" pageHeight="1169" math="0" shadow="0">
      <root>
        <mxCell id="WIyWlLk6GJQsqaUBKTNV-0" />
        <mxCell id="WIyWlLk6GJQsqaUBKTNV-1" parent="WIyWlLk6GJQsqaUBKTNV-0" />
        <mxCell id="TLLuaRGl2-pVpAP0r3hR-9" value="" style="rounded=0;whiteSpace=wrap;html=1;" vertex="1" parent="WIyWlLk6GJQsqaUBKTNV-1">
          <mxGeometry x="91" y="51" width="369" height="389" as="geometry" />
        </mxCell>
        <mxCell id="TLLuaRGl2-pVpAP0r3hR-10" value="parking&amp;nbsp;&lt;br&gt;" style="rounded=0;whiteSpace=wrap;html=1;" vertex="1" parent="WIyWlLk6GJQsqaUBKTNV-1">
          <mxGeometry x="115" y="50" width="130" height="60" as="geometry" />
        </mxCell>
        <mxCell id="TLLuaRGl2-pVpAP0r3hR-14" value="id : int&#xa;  " style="label;fontStyle=0;strokeColor=none;fillColor=none;align=left;verticalAlign=top;overflow=hidden;spacingLeft=28;spacingRight=4;rotatable=0;points=[[0,0.5],[1,0.5]];portConstraint=eastwest;imageWidth=16;imageHeight=16;image=img/clipart/Gear_128x128.png" vertex="1" parent="WIyWlLk6GJQsqaUBKTNV-1">
          <mxGeometry x="115" y="130" width="120" height="26" as="geometry" />
        </mxCell>
        <mxCell id="TLLuaRGl2-pVpAP0r3hR-15" value="slots []  : array of slots" style="label;fontStyle=0;strokeColor=none;fillColor=none;align=left;verticalAlign=top;overflow=hidden;spacingLeft=28;spacingRight=4;rotatable=0;points=[[0,0.5],[1,0.5]];portConstraint=eastwest;imageWidth=16;imageHeight=16;image=img/clipart/Gear_128x128.png" vertex="1" parent="WIyWlLk6GJQsqaUBKTNV-1">
          <mxGeometry x="112.5" y="156" width="175" height="26" as="geometry" />
        </mxCell>
        <mxCell id="TLLuaRGl2-pVpAP0r3hR-16" value="entranceLandingZone : " style="label;fontStyle=0;strokeColor=none;fillColor=none;align=left;verticalAlign=top;overflow=hidden;spacingLeft=28;spacingRight=4;rotatable=0;points=[[0,0.5],[1,0.5]];portConstraint=eastwest;imageWidth=16;imageHeight=16;image=img/clipart/Gear_128x128.png" vertex="1" parent="WIyWlLk6GJQsqaUBKTNV-1">
          <mxGeometry x="110" y="182" width="180" height="26" as="geometry" />
        </mxCell>
        <mxCell id="TLLuaRGl2-pVpAP0r3hR-18" value="trafficLight : true/false" style="label;fontStyle=0;strokeColor=none;fillColor=none;align=left;verticalAlign=top;overflow=hidden;spacingLeft=28;spacingRight=4;rotatable=0;points=[[0,0.5],[1,0.5]];portConstraint=eastwest;imageWidth=16;imageHeight=16;image=img/clipart/Gear_128x128.png" vertex="1" parent="WIyWlLk6GJQsqaUBKTNV-1">
          <mxGeometry x="110" y="208" width="160" height="26" as="geometry" />
        </mxCell>
        <mxCell id="TLLuaRGl2-pVpAP0r3hR-19" value="" style="rounded=0;whiteSpace=wrap;html=1;" vertex="1" parent="WIyWlLk6GJQsqaUBKTNV-1">
          <mxGeometry x="480" y="51" width="220" height="149" as="geometry" />
        </mxCell>
        <mxCell id="TLLuaRGl2-pVpAP0r3hR-21" value="slot" style="rounded=1;whiteSpace=wrap;html=1;" vertex="1" parent="WIyWlLk6GJQsqaUBKTNV-1">
          <mxGeometry x="490" y="51" width="120" height="60" as="geometry" />
        </mxCell>
        <mxCell id="TLLuaRGl2-pVpAP0r3hR-22" value="available : true/false" style="label;fontStyle=0;strokeColor=none;fillColor=none;align=left;verticalAlign=top;overflow=hidden;spacingLeft=28;spacingRight=4;rotatable=0;points=[[0,0.5],[1,0.5]];portConstraint=eastwest;imageWidth=16;imageHeight=16;image=img/clipart/Gear_128x128.png" vertex="1" parent="WIyWlLk6GJQsqaUBKTNV-1">
          <mxGeometry x="490" y="150" width="170" height="26" as="geometry" />
        </mxCell>
        <mxCell id="TLLuaRGl2-pVpAP0r3hR-23" value="id : int" style="label;fontStyle=0;strokeColor=none;fillColor=none;align=left;verticalAlign=top;overflow=hidden;spacingLeft=28;spacingRight=4;rotatable=0;points=[[0,0.5],[1,0.5]];portConstraint=eastwest;imageWidth=16;imageHeight=16;image=img/clipart/Gear_128x128.png" vertex="1" parent="WIyWlLk6GJQsqaUBKTNV-1">
          <mxGeometry x="490" y="130" width="120" height="26" as="geometry" />
        </mxCell>
        <mxCell id="TLLuaRGl2-pVpAP0r3hR-28" value="function hasAvailableSlot ()  Boolean " style="label;fontStyle=0;strokeColor=none;fillColor=none;align=left;verticalAlign=top;overflow=hidden;spacingLeft=28;spacingRight=4;rotatable=0;points=[[0,0.5],[1,0.5]];portConstraint=eastwest;imageWidth=16;imageHeight=16;image=img/clipart/Gear_128x128.png" vertex="1" parent="WIyWlLk6GJQsqaUBKTNV-1">
          <mxGeometry x="110" y="269" width="251.5" height="31" as="geometry" />
        </mxCell>
        <mxCell id="TLLuaRGl2-pVpAP0r3hR-29" value="function slotsNumber () int " style="label;fontStyle=0;strokeColor=none;fillColor=none;align=left;verticalAlign=top;overflow=hidden;spacingLeft=28;spacingRight=4;rotatable=0;points=[[0,0.5],[1,0.5]];portConstraint=eastwest;imageWidth=16;imageHeight=16;image=img/clipart/Gear_128x128.png" vertex="1" parent="WIyWlLk6GJQsqaUBKTNV-1">
          <mxGeometry x="112.5" y="300" width="227.5" height="26" as="geometry" />
        </mxCell>
        <mxCell id="TLLuaRGl2-pVpAP0r3hR-31" value="" style="rounded=0;whiteSpace=wrap;html=1;" vertex="1" parent="WIyWlLk6GJQsqaUBKTNV-1">
          <mxGeometry x="90" y="470" width="320" height="390" as="geometry" />
        </mxCell>
        <mxCell id="TLLuaRGl2-pVpAP0r3hR-32" value="&lt;span style=&quot;color: rgba(0, 0, 0, 0.87); font-family: &amp;quot;Open Sans&amp;quot;, Assistant, sans-serif; font-size: 16px; text-align: start; background-color: rgb(255, 255, 255);&quot;&gt;helicopters&amp;nbsp;&lt;/span&gt;" style="rounded=1;whiteSpace=wrap;html=1;" vertex="1" parent="WIyWlLk6GJQsqaUBKTNV-1">
          <mxGeometry x="100" y="480" width="120" height="60" as="geometry" />
        </mxCell>
        <mxCell id="TLLuaRGl2-pVpAP0r3hR-33" value="id int" style="label;fontStyle=0;strokeColor=none;fillColor=none;align=left;verticalAlign=top;overflow=hidden;spacingLeft=28;spacingRight=4;rotatable=0;points=[[0,0.5],[1,0.5]];portConstraint=eastwest;imageWidth=16;imageHeight=16;image=img/clipart/Gear_128x128.png" vertex="1" parent="WIyWlLk6GJQsqaUBKTNV-1">
          <mxGeometry x="91" y="550" width="120" height="26" as="geometry" />
        </mxCell>
        <mxCell id="TLLuaRGl2-pVpAP0r3hR-34" value="slotID int" style="label;fontStyle=0;strokeColor=none;fillColor=none;align=left;verticalAlign=top;overflow=hidden;spacingLeft=28;spacingRight=4;rotatable=0;points=[[0,0.5],[1,0.5]];portConstraint=eastwest;imageWidth=16;imageHeight=16;image=img/clipart/Gear_128x128.png" vertex="1" parent="WIyWlLk6GJQsqaUBKTNV-1">
          <mxGeometry x="91" y="585" width="120" height="26" as="geometry" />
        </mxCell>
        <mxCell id="TLLuaRGl2-pVpAP0r3hR-35" value="function barck() {}&#xa;&#xa;Using : &#xa;function hasAvailableSlot ()  Boolean &#xa;IF true : &#xa;function getEmptySlots() slots Array&#xa;=&gt; Chose the first empty slot : &#xa;editSlotsAvailability  (first empty slot ID )&#xa;slotID =&gt; changing to be first empty slot ID ; &#xa;&#xa;then :  &#xa;setTrafficLight () edit after each barking proccess&#xa;&#xa;&#xa;&#xa;" style="label;fontStyle=0;strokeColor=none;fillColor=none;align=left;verticalAlign=top;overflow=hidden;spacingLeft=28;spacingRight=4;rotatable=0;points=[[0,0.5],[1,0.5]];portConstraint=eastwest;imageWidth=16;imageHeight=16;image=img/clipart/Gear_128x128.png" vertex="1" parent="WIyWlLk6GJQsqaUBKTNV-1">
          <mxGeometry x="91" y="620" width="290" height="200" as="geometry" />
        </mxCell>
        <mxCell id="TLLuaRGl2-pVpAP0r3hR-36" value="function getEmptySlots() slots Array" style="label;fontStyle=0;strokeColor=none;fillColor=none;align=left;verticalAlign=top;overflow=hidden;spacingLeft=28;spacingRight=4;rotatable=0;points=[[0,0.5],[1,0.5]];portConstraint=eastwest;imageWidth=16;imageHeight=16;image=img/clipart/Gear_128x128.png" vertex="1" parent="WIyWlLk6GJQsqaUBKTNV-1">
          <mxGeometry x="115" y="330" width="235" height="22" as="geometry" />
        </mxCell>
        <mxCell id="TLLuaRGl2-pVpAP0r3hR-37" value="function setTrafficLight () edit after each barking proccess" style="label;fontStyle=0;strokeColor=none;fillColor=none;align=left;verticalAlign=top;overflow=hidden;spacingLeft=28;spacingRight=4;rotatable=0;points=[[0,0.5],[1,0.5]];portConstraint=eastwest;imageWidth=16;imageHeight=16;image=img/clipart/Gear_128x128.png" vertex="1" parent="WIyWlLk6GJQsqaUBKTNV-1">
          <mxGeometry x="112.5" y="352" width="347.5" height="28" as="geometry" />
        </mxCell>
        <mxCell id="TLLuaRGl2-pVpAP0r3hR-38" value="function editSlotsAvailability (slotID) changing status of specific slot" style="label;fontStyle=0;strokeColor=none;fillColor=none;align=left;verticalAlign=top;overflow=hidden;spacingLeft=28;spacingRight=4;rotatable=0;points=[[0,0.5],[1,0.5]];portConstraint=eastwest;imageWidth=16;imageHeight=16;image=img/clipart/Gear_128x128.png" vertex="1" parent="WIyWlLk6GJQsqaUBKTNV-1">
          <mxGeometry x="115" y="380" width="315" height="26" as="geometry" />
        </mxCell>
      </root>
    </mxGraphModel>
  </diagram>
</mxfile>
